<?xml version="1.0" encoding="utf-8"?>
<!-- Generator: Adobe Illustrator 25.2.1, SVG Export Plug-In . SVG Version: 6.00 Build 0)  -->
<svg version="1.1" id="Camada_1" xmlns="http://www.w3.org/2000/svg" xmlns:xlink="http://www.w3.org/1999/xlink" x="0px" y="0px"
	 viewBox="0 0 250 150" style="enable-background:new 0 0 250 150;" xml:space="preserve">
<style type="text/css">
	.st0{fill:#FEFEFE;}
	.st1{fill:#B583EA;}
	.st2{fill:#B584EA;}
	.st3{fill:#B684EA;}
</style>
<g>
	<g>
		<path class="st0" d="M124.76,136.3c-40.55,0-81.11,0-121.66,0.02c-0.9,0-1.1-0.2-1.1-1.1C2.03,98.51,2.03,61.81,2,25.1
			C2,24.2,2.2,24,3.1,24c81.19,0.02,162.37,0.02,243.56,0c0.9,0,1.1,0.2,1.1,1.1c-0.03,36.71-0.03,73.41,0,110.12
			c0,0.9-0.2,1.1-1.1,1.1C206.03,136.29,165.39,136.3,124.76,136.3z"/>
		<path class="st1" d="M114.72,91.77c-1.02,1.85-1.89,3.48-2.98,5c-2.06,2.86-5.63,2.37-7.66,0.53c-2.81-2.55-4.16-5.89-5.21-9.41
			c-0.16-0.53-0.2-1.1-0.64-1.66c-0.94,1.88-1.83,3.7-2.76,5.5c-0.85,1.63-1.88,3.13-3.12,4.52c-2.65,2.95-7.37,1.64-9.07-0.69
			c-1.68-2.29-2.16-4.93-2.38-7.66c-0.05-0.58-0.01-1.17-0.25-1.85c-0.42,0.73-0.88,1.45-1.26,2.2c-1.17,2.27-2.31,4.55-3.98,6.53
			c-1.42,1.68-3.27,2.69-5.28,3.37c-1.92,0.66-4.94-1-6.2-3.17c-1.31-2.25-1.58-4.75-1.71-7.27c-0.27-5.09,0.42-10.11,1.09-15.13
			c0.25-1.85,0.51-3.71,0.78-5.56c0.13-0.91-0.22-1.17-1.07-0.92c-0.73,0.21-1.46,0.4-2.2,0.56c-1.52,0.31-2.84-0.02-3.91-1.22
			c-0.37-0.41-0.71-0.85-0.39-1.38c0.28-0.46,0.81-0.5,1.29-0.38c1.73,0.44,3.39,0.12,5.07-0.31c1.33-0.34,1.98-1.13,2.19-2.49
			c0.39-2.44,0.72-4.89,1.41-7.27c0.28-0.96,0.59-1.91,0.98-2.82c0.68-1.6,1.96-1.84,3.2-0.6c1.7,1.7,1.78,3.84,1.51,6.04
			c-0.07,0.59-0.26,1.17-0.36,1.76c-0.06,0.34-0.2,0.77,0.12,1.01c0.32,0.24,0.69,0,1.01-0.17c2.25-1.17,4.66-1.85,7.15-2.27
			c0.5-0.09,1.13-0.36,1.41,0.21c0.29,0.58-0.33,0.92-0.7,1.24c-0.64,0.56-1.42,0.89-2.2,1.19c-1.72,0.65-3.33,1.54-5.01,2.29
			c-1.85,0.83-2.63,2.17-2.79,4.18c-0.45,5.8-0.98,11.6-1.58,17.38c-0.29,2.76-0.35,5.58,0.14,8.36c0.07,0.39,0.18,0.78,0.34,1.14
			c0.5,1.19,1.35,1.41,2.36,0.58c0.36-0.3,0.69-0.68,0.94-1.07c2.77-4.25,5.56-8.48,8.26-12.77c0.7-1.12,0.54-2.55,0.79-3.83
			c0.34-1.72,0.67-3.45,1.26-5.1c0.26-0.75,0.62-1.44,1.18-2.05c1.17-1.26,2.44-0.69,3.6-0.21c1.36,0.57,1.79,1.9,1.87,3.25
			c0.13,2.25-0.42,4.43-0.81,6.63c-0.71,4.08-1.58,8.14-1.58,12.32c0,0.72,0.06,1.43,0.27,2.13c0.58,1.85,1.6,2.14,3.08,0.84
			c1.12-0.98,1.97-2.2,2.74-3.47c1.12-1.84,2.09-3.78,3.29-5.56c0.93-1.38,0.54-2.76,0.36-4.14c-0.6-4.58-0.48-9.16-0.05-13.74
			c0.34-3.61,0.81-7.21,1.83-10.7c0.63-2.15,1.34-4.27,2.61-6.15c1.14-1.68,2.64-2.72,4.77-2.71c2.9,0.02,4.65,1.72,4.84,4.64
			c0.35,5.63-0.82,11.01-2.32,16.38c-1.1,3.96-2.72,7.75-3.55,11.79c-0.99,4.82-0.43,9.5,1.09,14.12c0.11,0.34,0.28,0.67,0.49,0.95
			c0.76,1.04,1.65,1.04,2.42,0c1.32-1.77,2.26-3.76,3.4-5.64c0.95-1.56,1.46-3.19,1.65-5.03c0.3-2.85,1.43-5.46,3.06-7.84
			c0.86-1.27,1.42-2.65,1.41-4.25c-0.01-4.25,4.21-6.92,8.06-5.12c2.48,1.16,3.92,3.22,4.66,5.78c0.67,2.32,1.28,2.76,3.7,2.13
			c2-0.53,3.96-1.2,5.95-1.79c0.61-0.18,1.23-0.35,1.86-0.43c0.82-0.09,1.63,0.14,1.77,1.04c0.13,0.85-0.7,1.06-1.34,1.26
			c-2.9,0.87-5.74,1.94-8.72,2.52c-1.01,0.19-1.02,0.78-0.99,1.65c0.18,5.72-0.14,11.36-3.65,16.26c-0.98,1.37-2.08,2.64-3.56,3.5
			c-3.78,2.19-8.19,0.84-10.51-3.22C115.62,94.41,115.12,93.25,114.72,91.77z"/>
		<path class="st1" d="M162.38,62.47c0.82-0.78,0.95-1.58,1.21-2.31c0.6-1.69,1.08-3.42,2.17-4.9c1-1.37,2.29-1.71,3.89-1.42
			c3.82,0.67,4.87,2.45,5.43,6.37c0.04,0.27,0.04,0.54,0.17,0.87c0.78-1.56,1.61-3.07,2.51-4.54c1.15-1.88,2.45-3.66,4.12-5.11
			c1.75-1.53,3.58-2.88,6.13-1.85c2.64,1.07,3.45,3.27,3.6,5.84c0.26,4.45-0.34,8.82-1.01,13.21c-0.95,6.22-2.07,12.42-2.59,18.7
			c-0.23,2.78-0.42,5.55-0.22,8.34c0.06,0.83,0.02,1.89,0.92,2.16c0.88,0.27,1.34-0.68,1.79-1.32c0.46-0.65,0.85-1.36,1.35-1.98
			c0.51-0.64,1.03-0.64,1.26,0.25c0.47,1.83-0.34,3.27-1.49,4.56c-0.99,1.11-2.18,1.36-3.68,1.02c-3.51-0.79-4.97-3.15-5.67-6.44
			c-0.93-4.36-0.79-8.71-0.29-13.09c0.4-3.56,0.68-7.14,1.03-10.71c0.33-3.34,1.19-6.58,1.79-9.87c0.4-2.2,0.76-4.4,0.82-6.64
			c0.01-0.34,0.16-0.77-0.25-0.97c-0.44-0.22-0.76,0.12-1.04,0.4c-1.58,1.57-2.71,3.44-3.71,5.4c-1.97,3.85-3.67,7.81-4.49,12.08
			c-0.78,4.07-1.18,8.2-1.79,12.3c-0.34,2.32-0.91,4.61-1.56,6.87c-0.56,1.97-1.34,2.3-3.06,1.75c-0.65-0.21-0.95-0.66-1.17-1.25
			c-0.42-1.14-0.54-2.34-0.62-3.52c-0.3-4.79-0.05-9.56,0.38-14.33c0.22-2.42,0.37-4.85,0.5-7.28c0.12-2.23,0.18-4.47,0.25-6.7
			c0.01-0.32,0.02-0.64-0.04-0.95c-0.06-0.31-0.16-0.65-0.52-0.74c-0.38-0.09-0.58,0.19-0.77,0.45c-0.92,1.33-1.49,2.84-1.93,4.36
			c-1.44,4.95-2.29,10-2.75,15.14c-0.5,5.63-0.84,11.3-2.63,16.73c-0.91,2.76-2.18,5.33-4.44,7.27c-1.64,1.41-3.56,1.75-5.6,1.15
			c-1.56-0.46-2.39-1.9-2.14-3.43c0.09-0.52,0.23-1.06,0.88-1.12c0.57-0.05,0.82,0.36,1.06,0.81c0.28,0.53,0.18,1.47,0.99,1.46
			c0.8-0.01,1.12-0.85,1.42-1.48c1.04-2.2,1.35-4.58,1.62-6.95c0.85-7.54,1.25-15.1,1.51-22.68c0.11-3.23,0.33-6.46-0.05-9.68
			c-0.02-0.2-0.01-0.41-0.07-0.59c-0.18-0.52-0.2-1.2-0.83-1.36c-0.61-0.15-1.03,0.36-1.4,0.77c-0.78,0.86-1.49,1.77-2.25,2.64
			c-0.28,0.32-0.56,0.73-1.1,0.41c-0.47-0.28-0.63-0.71-0.58-1.22c0.08-0.78,0.45-1.45,0.93-2.04c1.65-2,3.73-3.21,6.33-3.49
			c1.48-0.16,2.6,0.46,3.27,1.74C161.1,57.64,162.41,59.7,162.38,62.47z"/>
		<path class="st1" d="M30.29,76.38c-0.1,4.63-0.35,9.26-0.22,13.9c0.03,1.11,0.37,2.2,0.09,3.34c-0.15,0.61,0.36,0.76,0.84,0.68
			c2.97-0.53,5.99,0.09,8.96-0.38c0.47-0.07,1-0.15,1.43,0c1.36,0.49,1.74-0.2,2.14-1.35c0.7-1.95,1.97-3.47,4.11-4
			c0.44-0.11,1.05-0.57,1.34,0.14c0.25,0.63-0.07,1.07-0.69,1.44c-1.45,0.86-2.49,2.09-2.94,3.77c-0.37,1.37-0.15,2.61,0.68,3.74
			c0.86,1.18,2.16,1.64,3.46,1.26c1.45-0.42,2.27-1.53,2.42-3.21c0.24-2.75-0.5-5.28-1.61-7.76c-1.21-2.69-2.7-5.26-3.6-8.09
			c-0.96-3.04-1.37-6.11-0.06-9.13c1.24-2.85,3.23-4.82,6.54-5.04c2.04-0.14,3.57,0.78,4.65,2.4c0.98,1.48,0.73,3.05-0.05,4.55
			c-0.28,0.53-0.64,1.01-1,1.49c-0.18,0.24-0.4,0.57-0.78,0.35c-0.32-0.19-0.12-0.49-0.1-0.75c0.1-1.14,0.68-2.21,0.38-3.41
			c-0.28-1.11-0.95-1.72-2.03-1.92c-1.12-0.2-1.93,0.23-2.48,1.23c-1.01,1.84-0.5,3.65,0.11,5.44c0.74,2.17,2.08,4.05,3.06,6.09
			c1.5,3.11,3.09,6.15,3.62,9.68c0.97,6.37-4.56,11.74-10.78,10.17c-1.99-0.5-3.57-1.59-4.4-3.54c-0.27-0.64-0.55-0.8-1.26-0.61
			c-1.74,0.47-3.56,0.57-5.34,0.55c-3.15-0.05-6.28,0.31-9.43,0.03c-2.18-0.19-3.15-0.9-3.48-3.04c-0.31-2.05-0.55-4.11-0.72-6.17
			c-0.55-6.75-0.08-13.5,0.03-20.24c0.04-2.43,0.08-4.85,0.02-7.29c-0.06-2.66,0.23-5.34,0.43-8c0.08-1.1,1.08-1.92,2.33-1.76
			c2.6,0.33,5.18-0.04,7.76,0.02c2.92,0.07,5.79-0.54,8.7-0.34c0.36,0.02,0.72,0,1.08,0.01c0.57,0.01,1.26,0,1.32,0.71
			c0.06,0.67-0.51,1.06-1.14,1.2c-2.42,0.54-4.88,0.71-7.34,0.98c-1.43,0.15-2.85,0.35-4.28,0.38c-1.21,0.02-1.46,0.73-1.52,1.68
			c-0.08,1.35,0,2.71-0.2,4.06c-0.37,2.61-0.31,5.26-0.32,7.89c0,0.88,0.25,1.17,1.16,1.17c1.96-0.02,3.89-0.44,5.85-0.3
			c0.76,0.05,1.51,0.16,2.22,0.43c0.51,0.19,0.94,0.5,0.87,1.13c-0.08,0.64-0.65,0.73-1.09,0.73c-2.4,0-4.72,0.8-7.14,0.64
			c-1.58-0.1-1.64,0.04-1.64,1.58c0,0.6,0.01,1.2,0.02,1.8C30.3,75.26,30.29,75.82,30.29,76.38z"/>
		<path class="st1" d="M212.73,48.49c1.04,0.03,2.42,0.24,3.75,0.68c3.19,1.05,4.52,3.28,3.87,6.55c-0.47,2.36-1.17,4.62-2.72,6.57
			c-1.02,1.29-0.86,1.53,0.72,1.89c3.75,0.85,5.9,3.53,7.31,6.82c1.3,3.03,1.34,6.28,1.07,9.54c-0.16,1.95-0.23,3.9-0.8,5.79
			c-1.54,5.14-4.61,9.12-9.02,12.14c-2.13,1.46-4.36,2.42-7.01,2.32c-4.36-0.16-6.38-2.17-6.8-6.54c-0.5-5.21-0.64-10.43-0.77-15.66
			c-0.11-4.08-0.16-8.15-0.09-12.22c0.07-4.35,0.27-8.7,0.44-13.05c0.08-1.94,0.41-2.3,2.3-3
			C207.39,49.44,209.75,48.44,212.73,48.49z"/>
		<path class="st2" d="M194.01,94.28c0.01-1.6,1.22-2.64,3.05-2.62c1.79,0.02,3.13,1.29,3.11,2.94c-0.02,1.64-1.16,2.79-2.78,2.81
			C195.5,97.44,194,96.05,194.01,94.28z"/>
		<path class="st3" d="M89.22,57.61c1.34,0.02,2.68,1.27,2.68,2.5c0,1.31-1.31,2.6-2.62,2.57c-1.54-0.03-2.89-1.18-2.87-2.46
			C86.43,58.76,87.68,57.59,89.22,57.61z"/>
		<path class="st0" d="M120.71,87.97c0.09-3.2,0.6-6.17,1.48-9.08c0.27-0.9,0.86-1.37,1.81-1.07c1.53,0.48,3.05,0.97,4.67,0.38
			c0.57-0.21,0.42,0.32,0.47,0.57c0.38,1.92-0.02,3.82-0.33,5.7c-0.49,3.04-1.33,5.99-2.59,8.81c-0.38,0.84-0.86,1.62-1.56,2.25
			c-1.09,0.99-2.26,0.78-2.94-0.52c-0.56-1.06-0.57-2.23-0.73-3.37C120.82,90.37,120.79,89.09,120.71,87.97z"/>
		<path class="st0" d="M104.22,75.28c-0.62-4.04-0.16-7.92,0.31-11.79c0.45-3.67,0.93-7.34,1.78-10.94
			c0.17-0.73,0.45-1.44,0.73-2.14c0.15-0.36,0.4-0.75,0.87-0.69c0.51,0.06,0.7,0.47,0.79,0.93c0.27,1.46,0.38,2.95,0.18,4.41
			c-0.93,6.71-2.66,13.25-4.37,19.79C104.49,74.93,104.39,75.02,104.22,75.28z"/>
		<path class="st0" d="M127.31,75.57c-2.6,0.54-3.72-1.46-5.07-2.96c-0.52-0.58,0.16-2.4,1.11-3.34c0.85-0.83,1.85-0.89,2.87-0.38
			c1.67,0.83,3.23,4.3,2.82,6.12C128.77,76.19,127.87,75.44,127.31,75.57z"/>
		<path class="st0" d="M222.36,77.13c-0.06,4.26-0.17,8.08-1.9,11.55c-1.5,3-3.59,5.56-6.64,7.15c-1.69,0.88-2.45,0.55-2.52-1.32
			c-0.1-2.82,0.05-5.65,0.05-8.48c0-4.63-0.09-9.25-0.46-13.86c0-0.04-0.01-0.08-0.01-0.12c-0.4-4.06,0.45-4.97,4.94-5.31
			c2.98-0.22,4.91,1.18,5.78,4.21C222.21,73.13,222.49,75.33,222.36,77.13z"/>
		<path class="st0" d="M213.19,51.37c0.21,0,0.53-0.02,0.84,0c2.68,0.24,3.29,1.17,2.92,3.84c-0.54,3.98-3.47,6.31-5.91,8.99
			c-0.52,0.58-0.76,0.14-0.81-0.36c-0.14-1.26-0.26-2.53-0.35-3.8c-0.14-2.15-0.37-4.28-1.34-6.26c-0.31-0.63-0.19-1.13,0.53-1.45
			C210.36,51.79,211.63,51.22,213.19,51.37z"/>
	</g>
</g>
</svg>
