<?xml version="1.0" encoding="utf-8"?>
<!-- Generator: Adobe Illustrator 25.2.1, SVG Export Plug-In . SVG Version: 6.00 Build 0)  -->
<svg version="1.1" id="Camada_1" xmlns="http://www.w3.org/2000/svg" xmlns:xlink="http://www.w3.org/1999/xlink" x="0px" y="0px"
	 viewBox="0 0 1920 1080" style="enable-background:new 0 0 1920 1080;" xml:space="preserve">
<style type="text/css">
	.st0{fill:#8400B5;}
	.st1{fill:#FDFDFE;}
</style>
<g>
	<g>
		<path class="st0" d="M902.18,610.4c-6.14,10.82-10.8,20.23-17.34,28.53c-13.61,17.29-33.09,16-48.29,4.75
			c-6.13-4.53-11.21-10.5-15.1-17.22C813.08,612,805,597.4,801.14,580.91c-0.32-1.35-1.01-2.61-1.96-5.02
			c-6.25,12.39-12.12,23.84-17.8,35.38c-5.15,10.45-13.05,18.67-20.96,26.97c-13.33,13.99-39.88,8.71-51.6-2.68
			c-13.52-13.14-16.27-29.72-18.17-46.92c-0.47-4.22-0.07-8.54-0.76-13.05c-5.29,6.48-8.84,13.84-12.67,21.07
			c-8.09,15.27-17.43,29.8-31.41,40.3c-8.39,6.3-18.24,12.31-28.7,11.69c-13.13-0.77-24.67-7.15-32.2-18.93
			c-8.04-12.58-9.78-26.92-10.67-41.24c-1.98-31.95,2.24-63.55,6.49-95.12c1.46-10.89,2.96-21.78,4.62-32.65
			c0.8-5.23-1.43-6.74-6.02-5.25c-6.64,2.16-13.35,3.55-20.34,3.97c-7.63,0.46-13.36-2.84-18.35-8.14c-2.1-2.23-3.81-4.73-2.29-7.7
			c1.51-2.95,4.69-3.39,7.57-2.65c10.85,2.78,21.33,0.71,31.87-1.78c8.3-1.96,12.54-6.91,13.5-15.42
			c2.26-19.97,7.29-39.3,14.66-57.99c4.89-12.39,13.57-13.32,22.65-3.54c11.76,12.68,9.26,27.19,6.9,41.91
			c-0.26,1.65-0.88,3.24-1.09,4.89c-0.53,4.17,1.46,5.23,5.09,3.75c1.99-0.81,3.91-1.81,5.83-2.8c13.37-6.92,28.02-9.46,42.57-12.21
			c2.15-0.41,5.14-1.21,6.46,1.53c1.28,2.65-0.93,4.5-2.62,6.13c-6.61,6.34-15.24,8.79-23.48,11.97
			c-11.88,4.58-23.13,10.29-33.72,17.42c-4.03,2.72-5.67,6.02-6.09,10.62c-1.69,18.57-3.99,37.1-5.24,55.7
			c-2.08,30.78-7.85,61.3-6.25,92.34c0.26,5.05,0.49,10.08,1.73,14.94c1.21,4.76,1.82,10.79,7.73,11.89
			c5.85,1.09,10.52-2.22,13.9-7.1c3.54-5.12,7.17-10.19,10.64-15.35c8.79-13.06,17.02-26.55,26.41-39.16
			c11.97-16.07,19.91-33.46,21.49-53.55c0.82-10.44,5.86-19.52,9.6-28.97c3.16-7.99,11.18-13.12,16.82-11.97
			c15.28,3.12,22.24,9.88,22.69,22.44c0.59,16.67-3.38,32.8-6.59,48.95c-4.32,21.71-9.6,43.23-9.29,65.6
			c0.07,5.35,0.77,10.54,2.95,15.39c2.89,6.44,8.58,8.13,14.75,4.75c3.66-2.01,6.5-4.97,9.07-8.1
			c13.81-16.89,25.35-35.28,35.28-54.69c1.03-2.01,1.4-3.96,1.03-6.21c-6.72-41.06-4.7-82,1.34-122.95
			c2.07-14.01,3.82-28.21,9.31-41.18c5.79-13.7,10.24-28.38,21.42-39.28c15.09-14.73,40.74-11.91,51.59,5.98
			c1.55,2.56,2.3,5.85,2.63,8.88c2.08,19.4,2.04,39.05-3.06,57.74c-7.53,27.58-13.68,55.61-23.84,82.46
			c-4.5,11.88-6.72,24.45-10.36,36.56c-3.59,11.96-4.63,23.96-2.46,35.81c2.98,16.26,3.67,33.2,11.61,48.3
			c4.63,8.8,10.26,9.42,16.44,1.6c11.3-14.31,20.16-30.21,28.26-46.41c2.62-5.25,1.72-12.19,2.85-18.28
			c2.72-14.64,6.99-28.57,16.56-40.57c8.29-10.38,12.17-22.32,11.93-36.01c-0.25-14.12,15.67-27.83,32.02-28.33
			c19.81-0.6,33.57,9.3,42.59,26.36c2,3.78,3.5,7.89,4.72,11.99c4,13.37,8.06,16.21,21.95,12.7c13.66-3.45,27.05-7.93,40.55-11.99
			c5.09-1.53,10.09-2.74,15.45-0.86c3.15,1.1,6.19,2.32,6.03,6.03c-0.15,3.5-2.9,5.07-6.2,6.03c-18.33,5.33-36.4,11.62-55.08,15.61
			c-6.09,1.3-8,3.82-7.73,10.07c0.77,18.21,0.61,36.62-4.02,54.25c-5.8,22.11-14.79,43.36-32.91,58.34
			c-23.14,19.14-50.08,16.75-69.36-5.62C910.4,631.41,905.72,622.38,902.18,610.4z M993.89,537.99c-0.2-1.58-0.53-4.65-1.01-7.71
			c-0.22-1.41-0.52-2.94-2.66-2.16c-10.38,3.79-20.19,0.73-30.09-2.3c-4.07-1.24-7.61,0.02-9.4,4.34c-1.53,3.68-3.27,7.31-4.46,11.1
			c-8.3,26.62-7.92,53.56-3.05,80.72c1.27,7.1,4.79,12.15,11.85,13.54c7.04,1.39,10.72-4.04,14.29-8.84
			c7.52-10.1,10.58-22.36,15.04-33.78C991.02,575.94,992.88,557.72,993.89,537.99z M836.31,511.76c3.7-8.94,7.11-16.55,8.74-23.93
			c6.25-28.44,14.21-56.51,18.9-85.29c2.13-13.04,3-26.11,0.67-39.23c-0.47-2.63-0.98-5.49-4.14-6.02
			c-3.56-0.59-4.93,2.27-6.26,4.86c-0.66,1.27-1.31,2.57-1.76,3.93c-5.15,15.35-6.94,31.48-10.65,47.18
			c-3.12,13.17-4.07,26.88-5.53,40.4C834.25,472.36,833.09,491.12,836.31,511.76z M978.76,512.69c12.45,0.26,12.61,0.2,13.52-3.86
			c2.73-12.14-7.89-32.47-19.57-37.03c-6.37-2.49-12.48-1.66-16.93,3.89c-4.39,5.47-9.83,12.73-5.51,18.77
			C957.43,504.47,965.15,516.1,978.76,512.69z"/>
		<path class="st0" d="M1200.78,434.31c4.99-5.01,5.89-9.54,7.31-13.73c2.92-8.62,5.51-17.36,10.05-25.33
			c6.71-11.77,15.59-15.05,28.88-13c24.26,3.74,31.54,16.38,33.55,44.19c4.62-8.51,7.97-16.27,12.7-23.05
			c9.41-13.49,18.3-27.66,31.43-37.92c11.37-8.88,23.33-14.96,38.92-7.89c15.17,6.88,19.12,19.22,20.01,33.58
			c1.67,26.91-1.24,53.51-5.99,80.02c-3.75,20.93-5.27,42.32-9.98,63c-6.34,27.88-7.6,56.13-9.1,84.39
			c-0.38,7.21-0.25,14.86,2.18,22.02c2.32,6.85,6.32,7.94,11.65,2.93c4.76-4.47,7.66-10.39,11.4-15.65c1.51-2.12,2.95-4.95,6.1-3.96
			c2.86,0.9,3.28,3.96,3.67,6.54c2.75,18.57-15.75,34.92-33.9,30.59c-23.61-5.64-32.27-22.63-36.26-44.41
			c-4.46-24.38-3.14-48.6-0.54-72.95c2.24-20.93,4.57-41.86,6.08-62.84c1.18-16.3,7.17-31.46,9.87-47.4
			c2.88-16.98,6.22-33.86,7.38-51.07c0.17-2.48,1.25-5.86-1.59-7.24c-3.11-1.51-5.22,1.45-7.28,3.3
			c-16.01,14.36-23.16,34.18-32.76,52.59c-17.42,33.43-21.9,69.85-25.96,106.44c-2.06,18.58-6.5,36.69-10.53,54.88
			c-0.82,3.68-2.41,7.33-4.32,10.6c-2.38,4.09-6.08,7.05-11.17,6.22c-5.17-0.83-10.45-1.9-12.63-7.89
			c-1.82-4.99-2.57-10.14-3.3-15.38c-3.26-23.4-1.5-46.83-0.45-70.22c0.69-15.28,2.61-30.5,3.55-45.78
			c1.21-19.59,1.99-39.21,2.95-58.82c0.05-0.96,0.02-1.92,0.02-2.88c-0.01-3.36,0.22-7.82-3.11-8.82c-4.2-1.27-5.59,3.45-7.41,6.38
			c-12.92,20.82-16.47,44.55-21.05,67.96c-4.92,25.17-6.13,50.78-8.78,76.22c-1.75,16.88-2.74,34.07-7.98,50.22
			c-6.51,20.09-12.36,40.68-27.19,57.06c-11.54,12.75-29.71,17.55-45.64,10.96c-7.54-3.12-12.25-14.41-9.08-21.92
			c0.87-2.05,2.15-3.93,4.64-3.95c2.98-0.03,5.76,0.87,7.32,3.63c0.93,1.64,1.31,3.59,2.06,5.35c2.27,5.31,6.06,5.86,9.65,1.23
			c2.79-3.6,4.83-7.61,6.15-12.08c6.17-20.8,7.99-42.26,9.82-63.7c1.36-15.97,1.05-32.16,3.39-47.97
			c4.93-33.46,4.21-67.12,5.16-100.73c0.17-6.18-0.81-12.4-1.46-18.59c-0.44-4.26-2.54-8.26-6.32-9.75
			c-3.84-1.51-6.45,2.35-8.81,4.91c-4.71,5.1-9.15,10.45-13.74,15.66c-2.03,2.31-4.09,3.59-7.49,1.97c-3.62-1.72-4.02-4.46-3.65-7.7
			c0.36-3.15,2.12-5.56,4.03-8.12c10.23-13.72,23.22-22.45,40.53-24.48c8.37-0.98,15.86,0.69,20,8.12
			C1191.24,403.43,1202.13,415.53,1200.78,434.31z"/>
		<path class="st0" d="M327.79,539.56c1-31.6,3.04-63.22,2.66-94.81c-0.26-22.29-0.03-44.45,1.81-66.65
			c0.71-8.61,5.29-13.6,14.18-13.48c8.12,0.1,16.24,1.37,24.34,1.14c25.1-0.72,50.18-1.93,75.26-2.89
			c4.07-0.15,8.15-0.04,12.22,0.07c3.12,0.09,7.01,0.06,7.39,3.98c0.39,4.07-2.8,6.67-6.57,7.31c-9.88,1.7-19.8,3.29-29.76,4.36
			c-15.68,1.67-31.41,2.95-47.13,4.23c-3.42,0.28-4.87,1.68-5.7,5.08c-2.54,10.38-0.58,20.98-2.16,31.48
			c-2.18,14.43-1.98,29.12-1.97,43.75c0,6.2,1.54,8.4,8.06,8.1c12.42-0.57,24.77-2.73,37.27-1.77c4.57,0.35,9.06,0.73,13.3,2.61
			c2.72,1.2,5.26,2.49,4.96,6.16c-0.34,4.19-3.7,5.23-6.66,5.14c-14.91-0.49-29.28,4.64-44.28,3.65
			c-10.97-0.73-11.58,0.1-11.14,11.03c1.24,30.7-2.41,61.32-1.29,92c0.37,10.05,0.93,20.09,1,30.14c0.04,4.82,2.85,5.04,6.12,4.5
			c19.25-3.18,38.71-0.26,58.07-2.08c9.05-0.85,15.69,0.74,19.99-10.91c3.9-10.54,13.05-19.49,25.77-21.92
			c2.43-0.46,5.56-2.22,6.74,1.37c0.97,2.94,0.71,5.91-2.85,7.93c-9.56,5.4-16.25,13.27-19.13,24.08
			c-2.64,9.92,1.83,22.11,10.01,27.27c13.09,8.26,29.02-0.16,30.83-16.6c2.29-20.72-4.74-39.37-14.6-56.85
			c-11.24-19.93-20.98-40.1-22.97-63.37c-1.63-19.1,3.17-36.09,17.5-48.73c14.86-13.1,34.17-17.39,50.4-4.97
			c13.97,10.69,13.53,34.61-0.6,45.19c-1.19,0.89-2.36,1.85-3.8,0.71c-1.32-1.04-1.15-2.52-0.75-3.96
			c1.59-5.79,2.85-11.62,2.62-17.69c-0.31-8.42-3.89-12.81-12.04-14.55c-7.65-1.63-13.48,1.43-17.03,8.52
			c-4.06,8.11-3.1,16.4-0.73,24.51c4.79,16.46,14,30.69,22.6,45.37c13.8,23.54,24.93,48.57,20.78,76.81
			c-3.17,21.58-18.43,33.49-38.31,39.42c-20.6,6.15-40.65,2.97-54.29-16.54c-5.95-8.52-10.44-6.52-17.48-5.9
			c-14,1.23-27.97,3.2-42.16,2.11c-8.06-0.62-16.22-0.55-24.36,0.72c-8.58,1.33-17.23-0.54-25.68-1.73
			c-8.46-1.2-13.06-7.67-14.22-16.04c-1.64-11.84-3.67-23.69-4.2-35.59C329.07,574.07,327.28,556.86,327.79,539.56z"/>
		<path class="st0" d="M1450.12,497.99c-0.52-44.71,2.02-82.28,2.86-119.89c0.24-10.73,2.1-13.18,12.45-16.62
			c16.96-5.65,33.52-13.06,52.14-11.53c9.13,0.75,18.08,2.36,26.53,5.68c16.84,6.62,23.12,19.75,18.98,39.04
			c-2.93,13.65-7.1,26.73-16.11,37.98c-6.01,7.5-4.78,8.81,4.44,11.36c27.05,7.48,43.55,26.12,48.9,52.85
			c6.48,32.37,5.76,65.07-7.87,95.86c-11.21,25.3-29.77,44.49-53.57,58.97c-13.35,8.12-26.92,13.18-42.67,12.03
			c-8.97-0.66-17.81-2.4-25.47-6.75c-10.84-6.16-13.53-17.66-14.84-28.97c-3.22-27.85-4.46-55.82-4.93-83.87
			C1450.67,526.39,1450.36,508.66,1450.12,497.99z M1575.26,521.8c0.77-10.73-0.84-23.98-4.58-36.97
			c-5.54-19.23-18.96-28.08-38.3-25.05c-5.41,0.85-10.76,2.22-16.06,3.63c-13.21,3.51-13.96,3.64-12.83,17.49
			c1.35,16.56,1.6,33.16,3.23,49.76c2.52,25.68,1.64,51.75,0.29,77.61c-0.36,6.89-2.81,13.24,0.15,20.49
			c3.18,7.81,5.54,10.04,13.11,6.39c19.65-9.47,34.17-24.4,43.62-43.89C1574.06,570.24,1574.92,547.41,1575.26,521.8z
			 M1543.55,381.9c1.41-5.39-1.63-8.93-7.23-11.19c-14.68-5.92-28.85-4.43-42.96,2.14c-4.89,2.28-5.74,5.18-3.55,9.64
			c5.47,11.19,6.82,23.26,7.67,35.45c0.55,7.85,1.1,15.71,1.95,23.54c0.4,3.66,1.68,5.57,5.88,2.6
			c9.36-6.62,15.68-15.96,22.81-24.53C1536.94,408.96,1543.29,397.14,1543.55,381.9z"/>
		<path class="st0" d="M1417.14,608.99c10.34,0.01,20.47,8.57,20.95,17.71c0.43,8.17-9.25,16.79-18.9,16.84
			c-10.74,0.05-21.24-9.25-21.2-18.8C1398.04,615.87,1406.42,608.98,1417.14,608.99z"/>
		<path class="st0" d="M759.38,419.72c-0.21,7.74-8.68,16.5-15.61,16.14c-10.39-0.54-18.77-7.37-18.76-15.29
			c0.01-9.55,7.97-16.2,19.02-15.89C752.1,404.89,759.58,412.23,759.38,419.72z"/>
		<path class="st1" d="M993.89,537.99c-1.01,19.72-2.86,37.95-9.49,54.91c-4.46,11.42-7.52,23.67-15.04,33.78
			c-3.57,4.8-7.25,10.23-14.29,8.84c-7.06-1.39-10.58-6.44-11.85-13.54c-4.86-27.15-5.25-54.1,3.05-80.72
			c1.18-3.79,2.93-7.42,4.46-11.1c1.79-4.32,5.33-5.59,9.4-4.34c9.9,3.03,19.71,6.1,30.09,2.3c2.15-0.79,2.45,0.75,2.66,2.16
			C993.35,533.34,993.69,536.42,993.89,537.99z"/>
		<path class="st1" d="M836.31,511.76c-3.22-20.64-2.06-39.4-0.04-58.11c1.46-13.52,2.42-27.23,5.53-40.4
			c3.72-15.69,5.5-31.83,10.65-47.18c0.45-1.35,1.11-2.65,1.76-3.93c1.33-2.58,2.7-5.45,6.26-4.86c3.17,0.53,3.68,3.39,4.14,6.02
			c2.33,13.12,1.45,26.19-0.67,39.23c-4.69,28.78-12.65,56.85-18.9,85.29C843.42,495.21,840,502.82,836.31,511.76z"/>
		<path class="st1" d="M978.76,512.69c-13.6,3.41-21.33-8.22-28.48-18.23c-4.32-6.05,1.12-13.3,5.51-18.77
			c4.45-5.55,10.56-6.38,16.93-3.89c11.68,4.56,22.29,24.89,19.57,37.03C991.37,512.9,991.2,512.95,978.76,512.69z"/>
		<path class="st1" d="M1575.26,521.8c-0.33,25.62-1.19,48.45-11.38,69.46c-9.45,19.49-23.97,34.42-43.62,43.89
			c-7.56,3.64-9.92,1.41-13.11-6.39c-2.95-7.24-0.5-13.6-0.15-20.49c1.35-25.86,2.23-51.93-0.29-77.61
			c-1.63-16.59-1.88-33.19-3.23-49.76c-1.13-13.85-0.38-13.98,12.83-17.49c5.3-1.41,10.65-2.78,16.06-3.63
			c19.33-3.02,32.75,5.82,38.3,25.05C1574.42,497.82,1576.03,511.07,1575.26,521.8z"/>
		<path class="st1" d="M1543.55,381.9c-0.26,15.23-6.62,27.05-15.43,37.65c-7.14,8.58-13.45,17.92-22.81,24.53
			c-4.2,2.97-5.49,1.07-5.88-2.6c-0.85-7.83-1.4-15.68-1.95-23.54c-0.85-12.2-2.2-24.27-7.67-35.45c-2.18-4.47-1.34-7.37,3.55-9.64
			c14.11-6.57,28.28-8.06,42.96-2.14C1541.92,372.98,1544.97,376.52,1543.55,381.9z"/>
	</g>
</g>
</svg>
