<?xml version="1.0" encoding="utf-8"?>
<!-- Generator: Adobe Illustrator 25.2.1, SVG Export Plug-In . SVG Version: 6.00 Build 0)  -->
<svg version="1.1" id="Camada_1" xmlns="http://www.w3.org/2000/svg" xmlns:xlink="http://www.w3.org/1999/xlink" x="0px" y="0px"
	 viewBox="0 0 1920 1080" style="enable-background:new 0 0 1920 1080;" xml:space="preserve">
<style type="text/css">
	.st0{fill:#FEFEFE;}
	.st1{fill:#B583EA;}
	.st2{fill:#B584EA;}
	.st3{fill:#B684EA;}
</style>
<g>
	<g>
		<path class="st0" d="M959.76,596.3c-40.55,0-81.11,0-121.66,0.02c-0.9,0-1.1-0.2-1.1-1.1c0.03-36.71,0.03-73.41,0-110.12
			c0-0.9,0.2-1.1,1.1-1.1c81.19,0.02,162.37,0.02,243.56,0c0.9,0,1.1,0.2,1.1,1.1c-0.03,36.71-0.03,73.41,0,110.12
			c0,0.9-0.2,1.1-1.1,1.1C1041.03,596.29,1000.39,596.3,959.76,596.3z"/>
		<path class="st1" d="M916.14,546.23c-1.51,1.76-2.32,3.81-3.42,5.71c-1.59,2.74-3.68,4.88-6.67,6.08
			c-0.98,0.39-1.91,0.43-2.9,0.11c-3.14-1.01-4.63-3.39-5.22-6.43c-0.8-4.11-0.61-8.25-0.18-12.38c0.38-3.6,0.91-7.18,1.34-10.77
			c0.28-2.39,0.25-2.41-2.09-1.93c-1.79,0.37-3.49,0.52-4.85-1.06c-0.33-0.38-0.66-0.77-0.42-1.27c0.26-0.56,0.83-0.6,1.35-0.47
			c1.77,0.44,3.47,0.1,5.18-0.36c1.23-0.33,1.85-1.09,2.05-2.34c0.4-2.47,0.74-4.96,1.43-7.37c0.27-0.95,0.59-1.9,0.98-2.82
			c0.68-1.59,1.96-1.82,3.2-0.58c1.69,1.7,1.77,3.83,1.5,6.03c-0.06,0.51-0.22,1.01-0.31,1.52c-0.08,0.42-0.3,0.93,0.09,1.23
			c0.35,0.28,0.77-0.04,1.11-0.22c2.25-1.17,4.68-1.8,7.16-2.24c0.46-0.08,1.04-0.28,1.29,0.25c0.25,0.54-0.29,0.86-0.63,1.17
			c-0.66,0.61-1.48,0.95-2.3,1.26c-1.72,0.65-3.33,1.54-5.01,2.28c-1.85,0.82-2.62,2.18-2.78,4.18c-0.45,5.79-0.98,11.57-1.58,17.35
			c-0.29,2.75-0.35,5.57,0.14,8.35c0.08,0.43,0.21,0.85,0.39,1.25c0.47,1.03,1.21,1.25,2.12,0.59c0.41-0.29,0.79-0.69,1.07-1.11
			c2.8-4.27,5.61-8.53,8.32-12.85c0.7-1.12,0.53-2.54,0.79-3.82c0.33-1.68,0.65-3.36,1.22-4.98c0.28-0.79,0.63-1.52,1.22-2.16
			c1.17-1.25,2.44-0.69,3.6-0.2c1.36,0.57,1.78,1.9,1.86,3.25c0.13,2.24-0.43,4.42-0.81,6.62c-0.72,4.11-1.59,8.2-1.59,12.41
			c0,0.89,0.14,1.75,0.49,2.56c0.47,1.1,1.16,1.35,2.19,0.74c1.56-0.94,2.49-2.45,3.42-3.94c1.14-1.82,2.09-3.77,3.3-5.55
			c0.88-1.3,0.56-2.59,0.39-3.9c-0.5-3.89-0.52-7.77-0.24-11.68c0.27-3.74,0.67-7.45,1.51-11.1c0.65-2.8,1.49-5.55,3.1-7.98
			c1.12-1.69,2.64-2.71,4.78-2.7c2.9,0.02,4.64,1.72,4.83,4.65c0.35,5.62-0.83,10.99-2.33,16.35c-1.11,3.95-2.72,7.74-3.54,11.77
			c-0.99,4.81-0.43,9.48,1.09,14.09c0.09,0.26,0.21,0.52,0.36,0.75c0.78,1.23,1.77,1.26,2.63,0.08c1.28-1.74,2.2-3.7,3.33-5.53
			c0.95-1.55,1.46-3.18,1.65-5.02c0.3-2.84,1.44-5.44,3.06-7.82c0.87-1.27,1.41-2.64,1.41-4.24c-0.01-4.23,4.22-6.9,8.07-5.1
			c2.48,1.16,3.91,3.22,4.65,5.77c0.67,2.31,1.29,2.75,3.71,2.11c2.31-0.61,4.58-1.35,6.87-2.05c0.47-0.14,0.94-0.21,1.42-0.15
			c0.64,0.08,1.21,0.37,1.3,1.04c0.09,0.66-0.47,0.95-1.02,1.13c-1.82,0.58-3.64,1.16-5.47,1.71c-1.11,0.33-2.22,0.68-3.35,0.87
			c-1.06,0.18-1.26,0.64-1.22,1.7c0.19,4.92-0.05,9.8-2.44,14.3c-0.74,1.38-1.64,2.65-2.72,3.77c-3.98,4.14-9.7,3.41-12.54-1.58
			c-0.32-0.55-0.6-1.13-0.85-1.71c-0.23-0.55-0.4-1.12-0.6-1.7c-0.45-0.04-0.45,0.37-0.57,0.62c-0.71,1.43-1.57,2.76-2.49,4.07
			c-2.03,2.87-5.62,2.36-7.65,0.52c-2.8-2.55-4.16-5.88-5.2-9.39c-0.12-0.42-0.24-0.84-0.37-1.26c-0.03-0.11-0.13-0.19-0.27-0.39
			c-0.94,1.88-1.83,3.7-2.76,5.5c-0.85,1.63-1.88,3.13-3.12,4.51c-2.65,2.94-7.37,1.62-9.07-0.71c-1.67-2.29-2.16-4.92-2.38-7.64
			C916.1,547.4,916.14,546.81,916.14,546.23z"/>
		<path class="st1" d="M997.62,522.63c0.82-0.77,0.95-1.58,1.21-2.31c0.6-1.68,1.08-3.41,2.17-4.89c1-1.36,2.29-1.7,3.89-1.42
			c3.82,0.67,4.87,2.44,5.43,6.35c0.04,0.27,0.04,0.54,0.17,0.86c0.78-1.55,1.61-3.06,2.51-4.53c1.15-1.88,2.45-3.65,4.12-5.1
			c1.75-1.52,3.58-2.87,6.13-1.84c2.64,1.07,3.45,3.27,3.6,5.83c0.26,4.44-0.34,8.8-1.01,13.18c-0.95,6.2-2.07,12.39-2.59,18.66
			c-0.23,2.77-0.42,5.54-0.22,8.32c0.06,0.83,0.02,1.88,0.92,2.16c0.88,0.27,1.34-0.67,1.79-1.32c0.46-0.65,0.85-1.35,1.35-1.98
			c0.51-0.64,1.03-0.64,1.26,0.25c0.47,1.82-0.34,3.26-1.49,4.55c-0.99,1.11-2.18,1.35-3.68,1.02c-3.51-0.79-4.97-3.15-5.67-6.43
			c-0.93-4.36-0.79-8.69-0.29-13.06c0.4-3.56,0.68-7.13,1.03-10.69c0.33-3.33,1.19-6.57,1.79-9.85c0.4-2.19,0.76-4.39,0.82-6.62
			c0.01-0.34,0.16-0.77-0.25-0.97c-0.44-0.22-0.76,0.12-1.04,0.4c-1.58,1.56-2.71,3.44-3.72,5.39c-1.97,3.84-3.68,7.79-4.49,12.05
			c-0.78,4.1-1.17,8.26-1.8,12.39c-0.35,2.31-0.8,4.63-1.57,6.85c-0.66,1.89-1.32,2.18-3.03,1.64c-0.65-0.21-0.95-0.66-1.17-1.25
			c-0.42-1.14-0.54-2.33-0.62-3.51c-0.3-4.77-0.05-9.54,0.38-14.3c0.22-2.42,0.37-4.84,0.5-7.26c0.12-2.23,0.18-4.46,0.25-6.69
			c0.01-0.32,0.02-0.64-0.04-0.95c-0.06-0.31-0.16-0.65-0.52-0.74c-0.38-0.09-0.58,0.19-0.77,0.45c-0.92,1.33-1.49,2.83-1.93,4.35
			c-1.44,4.94-2.29,9.98-2.75,15.11c-0.5,5.62-0.84,11.28-2.63,16.69c-0.91,2.76-2.18,5.32-4.44,7.25c-1.64,1.41-3.56,1.75-5.6,1.14
			c-1.56-0.46-2.39-1.89-2.14-3.43c0.09-0.52,0.23-1.06,0.88-1.12c0.57-0.05,0.82,0.36,1.06,0.81c0.28,0.53,0.18,1.47,0.99,1.46
			c0.8-0.01,1.12-0.85,1.42-1.48c1.04-2.19,1.35-4.57,1.62-6.94c0.85-7.52,1.25-15.07,1.51-22.63c0.11-3.23,0.33-6.44-0.05-9.66
			c-0.02-0.2-0.01-0.41-0.07-0.59c-0.18-0.52-0.2-1.2-0.83-1.36c-0.61-0.15-1.03,0.36-1.4,0.76c-0.78,0.85-1.49,1.77-2.25,2.64
			c-0.28,0.32-0.56,0.73-1.1,0.41c-0.47-0.28-0.63-0.71-0.58-1.22c0.08-0.78,0.45-1.45,0.93-2.04c1.65-1.99,3.73-3.21,6.33-3.48
			c1.48-0.16,2.6,0.46,3.27,1.74C996.34,517.81,997.65,519.86,997.62,522.63z"/>
		<path class="st1" d="M865.51,536.51c-0.08,4.62-0.33,9.24-0.2,13.87c0.03,1.11,0.37,2.2,0.09,3.33c-0.15,0.61,0.36,0.76,0.84,0.67
			c2.97-0.53,5.99,0.09,8.96-0.38c0.47-0.07,1-0.15,1.43,0c1.36,0.49,1.74-0.2,2.14-1.34c0.7-1.95,1.97-3.47,4.11-3.99
			c0.44-0.11,1.05-0.57,1.34,0.14c0.25,0.63-0.07,1.07-0.69,1.43c-1.45,0.86-2.49,2.09-2.94,3.76c-0.37,1.37-0.15,2.61,0.68,3.74
			c0.86,1.18,2.16,1.64,3.46,1.26c1.45-0.42,2.27-1.53,2.42-3.2c0.24-2.75-0.5-5.27-1.61-7.74c-1.21-2.69-2.7-5.25-3.6-8.07
			c-0.96-3.03-1.37-6.09-0.06-9.11c1.24-2.84,3.23-4.81,6.54-5.03c2.04-0.14,3.57,0.78,4.65,2.4c0.98,1.47,0.73,3.05-0.05,4.54
			c-0.28,0.53-0.64,1.01-1,1.49c-0.18,0.24-0.4,0.57-0.78,0.35c-0.32-0.19-0.12-0.48-0.1-0.75c0.1-1.14,0.68-2.2,0.38-3.4
			c-0.28-1.11-0.95-1.72-2.03-1.91c-1.12-0.2-1.93,0.23-2.48,1.23c-1.01,1.84-0.5,3.64,0.11,5.43c0.74,2.16,2.08,4.04,3.06,6.08
			c1.5,3.1,3.09,6.14,3.62,9.66c0.97,6.36-4.56,11.71-10.78,10.15c-1.99-0.5-3.57-1.58-4.4-3.54c-0.27-0.63-0.55-0.8-1.26-0.6
			c-1.74,0.47-3.56,0.57-5.34,0.54c-3.15-0.05-6.28,0.31-9.43,0.03c-2.18-0.19-3.15-0.9-3.48-3.03c-0.31-2.04-0.55-4.1-0.72-6.16
			c-0.55-6.73-0.08-13.47,0.03-20.2c0.04-2.43,0.08-4.84,0.02-7.27c-0.06-2.66,0.23-5.33,0.43-7.98c0.08-1.1,1.08-1.91,2.33-1.76
			c2.6,0.32,5.18-0.04,7.76,0.02c2.92,0.07,5.79-0.54,8.7-0.34c0.36,0.02,0.72,0,1.08,0.01c0.57,0.01,1.26,0,1.32,0.71
			c0.06,0.67-0.51,1.06-1.14,1.19c-2.42,0.54-4.88,0.71-7.34,0.97c-1.43,0.15-2.85,0.35-4.28,0.37c-1.21,0.02-1.46,0.73-1.52,1.68
			c-0.08,1.35,0,2.7-0.2,4.05c-0.37,2.61-0.31,5.25-0.32,7.88c0,0.88,0.25,1.17,1.16,1.16c1.96-0.02,3.89-0.44,5.85-0.3
			c0.76,0.05,1.51,0.16,2.22,0.43c0.51,0.19,0.94,0.49,0.87,1.13c-0.08,0.64-0.65,0.72-1.09,0.73c-2.4,0-4.72,0.79-7.14,0.64
			c-1.58-0.1-1.64,0.04-1.64,1.57C865.51,534.19,865.51,535.35,865.51,536.51z"/>
		<path class="st1" d="M1047.53,508.66c1.48,0.04,2.86,0.25,4.19,0.69c3.19,1.05,4.52,3.27,3.87,6.53
			c-0.47,2.36-1.17,4.61-2.72,6.55c-1.02,1.28-0.86,1.53,0.72,1.89c3.75,0.85,5.9,3.52,7.31,6.8c1.3,3.02,1.34,6.27,1.07,9.52
			c-0.16,1.94-0.23,3.89-0.8,5.78c-1.54,5.13-4.61,9.1-9.02,12.12c-2.13,1.46-4.36,2.42-7.01,2.32c-4.36-0.16-6.38-2.16-6.8-6.52
			c-0.5-5.2-0.64-10.41-0.77-15.63c-0.11-4.07-0.16-8.13-0.09-12.2c0.07-4.34,0.27-8.68,0.44-13.02c0.08-1.93,0.41-2.29,2.3-2.99
			c1.91-0.71,3.8-1.45,5.82-1.76C1046.56,508.66,1047.09,508.68,1047.53,508.66z"/>
		<path class="st2" d="M1029.25,554.37c0.01-1.6,1.22-2.64,3.05-2.62c1.79,0.02,3.13,1.28,3.11,2.94c-0.02,1.63-1.16,2.79-2.78,2.81
			C1030.74,557.52,1029.24,556.14,1029.25,554.37z"/>
		<path class="st3" d="M924.46,517.78c1.34,0.02,2.68,1.27,2.68,2.5c0,1.31-1.31,2.59-2.62,2.57c-1.54-0.03-2.89-1.18-2.87-2.45
			C921.67,518.92,922.92,517.76,924.46,517.78z"/>
		<path class="st0" d="M955.95,548.07c0.09-3.19,0.6-6.16,1.48-9.06c0.27-0.9,0.86-1.36,1.81-1.07c1.53,0.48,3.05,0.97,4.67,0.38
			c0.57-0.21,0.42,0.32,0.47,0.57c0.38,1.92-0.02,3.81-0.33,5.68c-0.49,3.03-1.33,5.98-2.59,8.79c-0.38,0.84-0.86,1.62-1.56,2.25
			c-1.09,0.99-2.26,0.78-2.94-0.52c-0.56-1.05-0.57-2.23-0.73-3.36C956.06,550.47,956.03,549.19,955.95,548.07z"/>
		<path class="st0" d="M939.46,535.41c-0.62-4.04-0.16-7.9,0.31-11.76c0.45-3.66,0.93-7.32,1.78-10.92
			c0.17-0.73,0.45-1.44,0.73-2.14c0.15-0.36,0.4-0.75,0.87-0.69c0.51,0.06,0.7,0.46,0.79,0.92c0.27,1.46,0.38,2.95,0.18,4.4
			c-0.93,6.69-2.66,13.22-4.37,19.74C939.73,535.06,939.63,535.15,939.46,535.41z"/>
		<path class="st0" d="M962.54,535.7c-2.6,0.54-3.72-1.45-5.07-2.96c-0.52-0.58,0.16-2.4,1.11-3.33c0.85-0.83,1.85-0.89,2.87-0.38
			c1.67,0.83,3.23,4.29,2.82,6.11C964.01,536.32,963.11,535.57,962.54,535.7z"/>
		<path class="st0" d="M1057.6,537.26c-0.06,4.25-0.17,8.06-1.9,11.53c-1.5,2.99-3.59,5.55-6.64,7.13
			c-1.69,0.88-2.45,0.55-2.52-1.32c-0.1-2.82,0.05-5.64,0.05-8.46c0-4.62-0.09-9.23-0.46-13.83c0-0.04-0.01-0.08-0.01-0.12
			c-0.4-4.05,0.45-4.96,4.94-5.29c2.98-0.22,4.91,1.18,5.78,4.2C1057.45,533.26,1057.73,535.46,1057.6,537.26z"/>
		<path class="st0" d="M1048.43,511.56c0.21,0,0.53-0.02,0.84,0c2.68,0.24,3.29,1.17,2.92,3.83c-0.54,3.97-3.47,6.3-5.91,8.98
			c-0.53,0.58-0.76,0.14-0.81-0.35c-0.14-1.26-0.26-2.52-0.35-3.79c-0.14-2.15-0.37-4.27-1.34-6.24c-0.31-0.63-0.19-1.13,0.53-1.44
			C1045.6,511.97,1046.87,511.4,1048.43,511.56z"/>
	</g>
</g>
</svg>
